<svg height="946" viewBox="0 .001 1000 378.363" width="2500" xmlns="http://www.w3.org/2000/svg"><path clip-rule="evenodd" d="m539.732.096s2.535-.087 5.329-.095a209.82 209.82 0 0 1 6.187.095c16.224.453 33.48 3.949 46.395 14.56 10.282 8.39 14.642 22.621 12.092 35.536-1.892 9.543-6.334 18.427-11.105 26.9-9.624 16.698-21.552 31.999-32.822 47.71-2.056 2.55-3.62 5.758-3.455 9.131.247 2.632 2.303 4.771 4.689 5.758 4.606 1.892 9.789 1.481 14.642 1.234 15.465-1.645 30.354-6.334 45.079-11.022 1.07-.659 1.48.493 1.891 1.316-15.629 10.364-32.492 19.084-50.178 25.5-9.789 3.29-20.154 6.417-30.6 5.183-5.43-.576-10.941-3.784-12.669-9.296-2.138-7.074-1.316-14.971 1.728-21.716 4.688-10.53 12.01-19.496 18.837-28.627 11.434-14.971 23.198-29.86 32.164-46.559 3.044-5.84 6.17-13.08 3.208-19.578-2.714-6.005-8.802-9.542-14.56-12.257-10.2-4.524-21.14-7.32-31.917-10.364a735.874 735.874 0 0 1 -4.853 3.208c3.702 2.879 7.486 5.758 11.187 8.637-14.148 2.55-28.297 5.43-42.281 8.966-21.223 5.347-41.953 12.422-62.518 19.825 1.975 4.031 4.031 8.062 5.923 12.092-4.689 5.183-9.295 10.365-13.902 15.465 11.105 3.373 23.198 3.867 34.55 1.317 9.706-2.222 18.919-6.828 26.322-13.491-2.056-2.55-4.606-4.607-7.32-6.252 9.048.247 17.274 8.062 17.274 17.275h-5.265a37.052 37.052 0 0 0 -1.645-5.841c-10.283 9.294-23.527 15.136-37.264 16.617-12.092 1.398-24.43-.247-35.865-4.525a1370.7 1370.7 0 0 1 2.303 21.059c-6.498 2.55-12.503 6.17-17.85 10.611-4.278 3.702-8.555 7.98-10.118 13.573-1.646 4.935.987 10.53 5.264 13.161 5.183 3.209 11.27 4.771 17.357 5.594 7.897 1.07 15.958.987 23.938.412 15.63-1.152 31.176-4.113 46.394-7.815 1.481-.576 2.221 1.892.658 2.303-12.174 6.252-24.842 11.517-38.168 14.89-12.421 3.29-25.254 4.935-38.169 5.346-13.08-.411-27.063-2.961-37.428-11.516-7.733-6.252-11.846-16.206-11.846-26.077v-.493c.247-10.447 3.785-20.565 8.885-29.532 6.663-12.75 14.889-24.678 24.595-35.289 16.781-18.59 37.84-32.904 60.461-43.269 23.527-10.611 48.616-18.262 74.445-19.66zm-462.461 219.857c18.653 0 37.305-.028 55.958-.082 24.605 51.678 49.21 103.357 73.733 155.036h-55.876a6004.152 6004.152 0 0 0 -11.438-27.979h-77.024a6208.748 6208.748 0 0 1 -12.262 27.979h-50.362c11.85-23.782 23.782-47.482 35.55-71.264 13.907-27.979 27.896-55.794 41.721-83.69zm25.264 37.03a55697.673 55697.673 0 0 1 -25.182 56.04h48.964c-7.9-18.679-15.883-37.36-23.783-56.04zm118.499-37.03h48.798v154.954h-48.798zm79.41 0h48.881v30.941h-48.88v-30.941zm79.658.165c15.964-.055 31.929-.055 47.893 0v62.952c9.217-10.04 21.808-17.199 35.55-18.598 12.426-1.152 25.592.905 36.208 7.818 4.855 3.045 9.217 7.077 12.838 11.52 7.488 10.452 11.85 23.207 12.179 36.044.329 10.698-1.152 21.725-6.337 31.188-3.374 6.254-8.147 11.768-13.742 16.047-9.546 6.748-21.231 10.78-32.999 10.451-11.027-.082-22.218-3.127-31.27-9.546-4.938-3.456-9.135-7.735-12.92-12.426v19.339h-47.4c-.055-51.624-.055-103.22 0-154.79zm65.586 70.029c-6.583 1.481-12.262 6.254-14.977 12.426-2.222 5.431-2.963 11.356-3.127 17.199.082 7.817 1.234 16.294 6.5 22.548 3.54 4.772 9.547 6.747 15.142 7.653 7.324 1.07 14.566-2.304 19.421-7.736 4.444-4.197 6.172-10.286 7.077-16.211.74-6.419.494-13.167-1.563-19.338-1.728-5.514-5.02-10.78-9.958-13.825-5.513-3.374-12.343-4.197-18.515-2.716zm258.394-70.03c15.964-.054 31.928-.054 47.893 0 0 21.012.027 41.996.082 62.953 7.9-8.558 18.269-15.224 29.872-17.692 10.78-2.304 22.3-1.4 32.67 2.304 11.767 4.444 21.807 13.413 27.156 24.77 7.077 13.495 8.558 29.377 5.76 44.19-1.892 10.121-7.077 19.585-14.483 26.744-8.394 7.983-19.668 12.673-31.106 13.908-11.85 1.07-24.276-1.07-34.48-7.407-6.172-3.703-11.438-8.723-15.964-14.319.082 6.501.082 12.92.082 19.339h-47.647v-56.37c.247-32.834.165-65.668.165-98.42zm65.668 70.03c-7.077 1.481-13.002 6.912-15.471 13.66-1.975 5.35-2.634 10.945-2.716 16.623.247 6.501.988 13.25 4.444 18.927 1.975 3.045 4.28 6.007 7.653 7.571 5.185 2.551 11.192 4.032 16.952 2.715 6.419-1.48 11.685-6.171 15.306-11.52 4.69-9.135 5.267-19.997 2.716-29.872-1.482-5.843-4.609-11.438-9.628-14.895-5.596-3.785-12.755-4.773-19.256-3.21zm-186.8-24.44c12.672-2.47 25.756-2.551 38.594-1.893 12.344.905 25.016 2.798 35.961 8.723 5.431 3.045 10.369 7.242 13.496 12.59 3.62 6.09 4.937 13.25 5.02 20.244v69.371h-44.85v-15.8c-6.83 9.052-17.445 14.401-28.39 16.459-12.261 2.386-25.263 2.715-37.36-.905-5.925-1.893-11.767-4.69-16.211-9.217-4.608-4.608-6.995-11.027-7.324-17.528-.74-9.216 2.551-18.762 9.381-25.263 8.559-8.147 20.244-11.85 31.682-13.907 15.553-2.634 31.436-2.963 47.153-3.374 0-5.35-1.481-11.027-5.513-14.73-3.786-3.539-9.217-4.69-14.319-4.609-4.361-.082-9.052.905-12.261 4.033-2.058 2.057-3.374 4.773-4.197 7.488h-44.52c1.07-6.913 3.621-13.743 8.394-19.01 6.501-7.16 15.965-10.78 25.263-12.673zm25.51 60.648c-5.185.823-10.698 2.058-14.648 5.76-4.526 4.197-4.28 12.673.905 16.212 3.867 2.551 8.64 2.798 13.084 2.633 6.172-.247 12.837-1.81 17.034-6.665 4.609-5.02 5.514-12.179 5.432-18.762-7.324 0-14.566 0-21.808.822zm298.962-60.73c13.002-2.47 26.334-2.47 39.418-1.729 11.932.905 24.11 2.88 34.726 8.559 5.185 2.88 9.875 6.912 13.085 11.932 3.538 5.431 5.102 12.014 5.349 18.515v71.84h-44.602c0-5.266-.082-10.615 0-15.882-6.995 9.299-18.022 14.648-29.296 16.705-12.179 2.222-24.934 2.551-36.866-1.235-5.184-1.645-10.204-3.95-14.4-7.57-4.61-3.95-7.654-9.71-8.477-15.718-1.152-7.57-.082-15.635 3.95-22.219 4.28-6.994 11.274-11.932 18.763-15.141 11.274-4.773 23.7-6.172 35.878-7.241 9.71-.741 19.586-.988 29.378-1.235-.247-5.02-1.399-10.369-5.02-14.154-3.703-3.867-9.216-5.184-14.318-5.184-4.773-.083-9.875.823-13.249 4.444-1.893 1.975-2.962 4.526-3.786 7.077h-44.52c.988-6.748 3.457-13.414 8.065-18.598 6.501-7.571 16.376-11.192 25.922-13.167zm24.935 60.812c-4.938.74-10.204 1.975-14.072 5.35-4.855 4.114-4.773 13.001.658 16.54 4.115 2.715 9.382 2.88 14.154 2.633 5.925-.411 12.097-2.222 16.047-6.83 4.361-5.102 5.431-12.097 5.102-18.598-7.241 0-14.565.083-21.89.905zm-631.913-59.002h48.882v107.472h-48.882z" fill="#ff5a00" fill-rule="evenodd"/></svg>